<?xml version="1.0" encoding="UTF-8" standalone="no"?>
<svg
   xmlns:dc="http://purl.org/dc/elements/1.1/"
   xmlns:cc="http://creativecommons.org/ns#"
   xmlns:rdf="http://www.w3.org/1999/02/22-rdf-syntax-ns#"
   xmlns:svg="http://www.w3.org/2000/svg"
   xmlns="http://www.w3.org/2000/svg"
   xmlns:sodipodi="http://sodipodi.sourceforge.net/DTD/sodipodi-0.dtd"
   xmlns:inkscape="http://www.inkscape.org/namespaces/inkscape"
   width="210mm"
   height="297mm"
   viewBox="0 0 210 297"
   version="1.1"
   id="svg8"
   sodipodi:docname="desenhando.svg"
   inkscape:version="1.0.2-2 (e86c870879, 2021-01-15)">
  <defs
     id="defs2" />
  <sodipodi:namedview
     id="base"
     pagecolor="#ffffff"
     bordercolor="#666666"
     borderopacity="1.0"
     inkscape:pageopacity="0.0"
     inkscape:pageshadow="2"
     inkscape:zoom="0.35"
     inkscape:cx="950"
     inkscape:cy="560"
     inkscape:document-units="mm"
     inkscape:current-layer="layer1"
     inkscape:document-rotation="0"
     showgrid="false"
     inkscape:window-width="1512"
     inkscape:window-height="1040"
     inkscape:window-x="156"
     inkscape:window-y="0"
     inkscape:window-maximized="0" />
  <metadata
     id="metadata5">
    <rdf:RDF>
      <cc:Work
         rdf:about="">
        <dc:format>image/svg+xml</dc:format>
        <dc:type
           rdf:resource="http://purl.org/dc/dcmitype/StillImage" />
        <dc:title></dc:title>
      </cc:Work>
    </rdf:RDF>
  </metadata>
  <g
     inkscape:label="Layer 1"
     inkscape:groupmode="layer"
     id="layer1">
    <path
       d="m 5.4064659,35.253712 c -0.2599814,0.444469 -0.4874637,0.906719 -0.4874637,1.048955 0,0.124449 0.2924761,0.497804 0.6499514,0.800049 0.9261739,0.835604 1.9335913,2.471263 3.2984786,5.386997 3.1684958,6.809311 5.1183358,13.405278 6.9381918,23.468123 0.45496,2.453485 0.812431,4.462499 0.812431,4.480279 0,0.01779 -0.324972,0.01779 -0.731191,-0.01779 -0.438714,-0.05333 -1.18615,0.07111 -1.836097,0.30224 C 8.9161818,72.42934 3.8628406,81.265445 2.0754834,91.71942 c -0.6661971,3.875793 -1.18615083,11.37849 -0.7799359,11.37849 0.2437318,0 1.933596,-2.00902 3.3147336,-3.911355 C 10.801028,90.599349 16.21184,79.772016 17.268006,73.798314 c 0.113739,-0.604485 0.243727,-1.10229 0.308721,-1.084514 0.09749,0 1.104911,1.653439 2.242322,3.680228 0.487459,0.853389 1.819852,4.071368 2.06358,4.924752 0.08124,0.320019 0.01626,0.355575 -0.926174,0.355575 -4.679621,0.03553 -9.960445,7.022657 -12.5439819,16.587696 -0.6986963,2.631279 -1.2998988,5.884809 -1.6248695,8.836109 -0.2599815,2.4357 -0.3412211,7.20044 -0.1137434,7.20044 0.1949876,0 1.4948811,-1.52898 2.7785246,-3.25353 0.6337012,-0.87117 1.1536602,-1.51121 1.1536602,-1.42232 0,0.0711 -0.146238,0.97784 -0.324975,2.00902 -0.194984,1.0134 -0.4387153,2.89796 -0.5687037,4.17804 -0.2599815,2.47126 -0.3249753,7.02265 -0.1137435,7.02265 0.3249761,0 2.5835432,-2.88017 4.7446202,-6.04481 3.639704,-5.35144 7.263158,-11.94742 9.099261,-16.51658 0.812434,-2.044579 1.868596,-5.351451 2.031084,-6.382629 0.06499,-0.408917 0.162488,-0.746706 0.243732,-0.746706 0.06499,0 0.324971,0.533361 0.584951,1.173403 0.243732,0.640041 0.796185,1.724544 1.2349,2.400146 0.649947,1.048958 0.731191,1.262303 0.487459,1.333415 -1.527377,0.497816 -2.973507,2.062351 -3.91593,4.231381 -3.087251,7.11155 -1.689863,19.23675 3.509714,30.59745 0.536209,1.13785 0.584953,1.20897 0.796186,0.88895 0.324975,-0.48003 0.796185,-2.2757 1.267399,-4.8892 0.471208,-2.48904 1.072411,-6.86264 1.072411,-7.66269 0,-0.87117 0.227482,-0.5867 0.536208,0.67559 1.153656,4.8003 4.533383,11.39627 8.660546,16.85438 2.307316,3.05797 2.632287,3.41355 2.827275,3.11131 0.227477,-0.39114 0.194982,-3.50245 -0.08125,-6.38262 -0.958673,-9.88506 -3.184744,-19.20119 -6.028264,-25.086 l -0.73119,-1.5112 3.444722,3.76912 3.444721,3.75134 -0.617452,0.60448 c -1.381138,1.31564 -1.657364,3.68023 -0.763686,6.57819 2.031085,6.63152 9.131761,13.83196 18.897222,19.20119 l 2.534793,1.38675 0.292477,0.83561 c 0.974923,2.82684 2.957262,6.45374 5.280823,9.65393 1.57612,2.16902 5.297068,6.29372 5.52455,6.13371 0.259982,-0.17779 0.194988,-1.31563 -0.243727,-4.05358 -1.15366,-7.39601 -3.802192,-15.80543 -6.385734,-20.35682 -0.454964,-0.80005 -0.779935,-1.45787 -0.731191,-1.45787 0.04875,0 1.413637,0.60449 3.038502,1.35119 1.60862,0.74672 3.1035,1.42232 3.282234,1.49343 0.341225,0.16001 0.341225,0.16001 0.04875,1.10229 -1.787357,5.65369 4.517133,14.79203 14.916293,21.61913 2.778527,1.83122 8.05935,4.65806 8.693042,4.65806 0.471211,0 0.292476,-0.62227 -0.779934,-2.75573 -3.11975,-6.13371 -10.009195,-15.85876 -14.136353,-19.9479 -0.649946,-0.65782 -1.169905,-1.20896 -1.153658,-1.24452 0.03248,-0.0178 0.893675,0.32002 1.917345,0.76449 2.778519,1.19118 9.326741,3.48466 12.13776,4.24915 2.339817,0.64004 2.469804,0.69337 2.356063,1.04896 -0.08124,0.19556 -0.129987,1.04895 -0.129987,1.88455 0,1.88457 0.471211,3.30688 1.836104,5.60035 2.388556,4.01803 6.483216,7.87605 11.926526,11.21848 1.41364,0.87116 5.32957,2.91573 5.5733,2.91573 0.0487,0 0.0812,-0.17779 0.0812,-0.39113 0,-1.29786 -4.95584,-9.29836 -8.67679,-14.00976 -1.3649,-1.72456 -4.3709,-4.99587 -5.49206,-5.99148 -0.42246,-0.35558 -0.74744,-0.6756 -0.73118,-0.69338 0.0162,-0.0178 0.84492,0.0711 1.81984,0.21335 0.99117,0.14223 3.36348,0.30224 5.29707,0.37335 l 3.52597,0.10668 0.0812,0.87117 c 0.14623,1.31562 1.00742,2.89794 2.38856,4.40916 3.85093,4.23137 11.29283,7.43157 20.08337,8.62275 1.1699,0.16001 2.37231,0.26668 2.66478,0.23113 l 0.55245,-0.0533 -0.5362,-0.65782 c -1.73861,-2.16903 -8.6768,-7.4138 -14.00637,-10.57844 l -2.32355,-1.38676 1.00741,-0.12444 c 1.15365,-0.14223 2.42105,-0.49781 3.85094,-1.10229 0.89367,-0.37337 1.31614,-0.4267 5.24832,-0.53337 l 4.25716,-0.10667 v 0.39113 c 0,1.31564 2.22607,4.1247 4.71212,5.93815 4.3709,3.18242 10.69164,5.35144 18.76722,6.47151 2.6323,0.35557 3.98094,0.44447 3.98094,0.2489 0,-0.0711 -0.25999,-0.49781 -0.56871,-0.96006 -1.31615,-1.95567 -4.54963,-4.81807 -8.0431,-7.11155 -2.20982,-1.45787 -7.4094,-4.23137 -9.58672,-5.1381 -0.94242,-0.39112 -1.59238,-0.74671 -1.46238,-0.78226 0.12999,-0.0533 1.55987,-0.4267 3.16849,-0.83562 1.60862,-0.4089 3.6722,-0.96005 4.59838,-1.22674 l 1.67361,-0.51558 0.16249,0.48003 c 0.30872,0.94228 0.5687,1.36897 1.36489,2.25792 3.31473,3.66245 11.22784,5.70702 20.19711,5.2092 2.79478,-0.16 6.04452,-0.56892 6.46698,-0.8356 0.35747,-0.21334 -0.065,-0.56893 -1.8036,-1.5112 -4.20842,-2.27571 -12.17027,-5.24477 -16.97988,-6.32928 -0.94242,-0.21335 -1.88484,-0.4267 -2.09609,-0.48003 -0.29247,-0.0711 0,-0.23113 1.18616,-0.69338 0.87743,-0.32002 2.14483,-0.96006 2.82728,-1.42231 0.73119,-0.48003 2.50229,-1.3512 4.2409,-2.06235 1.64112,-0.67559 3.08725,-1.29786 3.21724,-1.38676 0.19499,-0.10667 0.35747,0.0533 0.68245,0.74672 0.76368,1.61788 2.84352,2.82684 5.67079,3.34242 1.60862,0.28447 5.5408,0.23113 7.58813,-0.10666 4.53338,-0.72894 9.57048,-2.52461 14.13636,-5.01365 0.81243,-0.44447 1.51112,-0.90672 1.57612,-1.01339 0.16249,-0.26669 -0.74744,-0.55115 -2.76228,-0.81784 -0.92617,-0.12444 -1.65736,-0.2489 -1.62486,-0.26668 0.0325,-0.0178 0.74744,-0.26668 1.59236,-0.53336 2.89227,-0.88895 8.35183,-3.46688 8.31933,-3.91136 -0.0487,-1.03117 -11.94278,-1.36897 -18.31227,-0.49781 l -0.81243,0.10668 1.05617,-1.2623 c 1.03991,-1.22674 1.07241,-1.24452 1.70611,-1.13785 4.15966,0.76449 10.02543,-2.31125 15.20876,-7.96494 1.9011,-2.08013 3.72095,-4.40916 3.72095,-4.78252 0,-0.26668 -0.14623,-0.2489 -1.60861,0.16001 -3.07101,0.85339 -7.92936,2.91574 -11.58531,4.90698 l -2.37231,1.29785 0.69869,-1.45787 c 1.42988,-2.93351 3.85094,-9.92061 3.49347,-10.04507 -0.61746,-0.23112 -5.6383,3.89358 -10.23667,8.42719 -3.59096,3.52022 -6.75946,7.27157 -8.83929,10.45399 -1.02367,1.54676 -2.56729,4.8003 -2.45355,5.13809 0.0812,0.23113 -0.86118,0.71116 -4.54963,2.34682 -3.16849,1.38675 -3.1035,1.40453 -1.62487,-0.28447 2.40481,-2.75573 4.79336,-6.57818 6.67821,-10.68511 0.89367,-1.97345 2.01484,-4.7114 2.01484,-4.97808 0,-0.2489 -1.3324,0.39113 -2.89227,1.38675 -4.74462,3.04019 -10.87037,8.12495 -14.93254,12.39188 -1.13741,1.19118 -1.94985,1.97346 -1.81985,1.72455 1.20239,-2.09791 2.58353,-5.40478 3.5747,-8.51608 0.68245,-2.16903 1.77111,-6.72042 1.77111,-7.44935 v -0.40892 l -0.50371,0.32002 c -2.30731,1.45788 -9.03426,8.76499 -12.75521,13.83197 -2.82727,3.8758 -5.26458,8.28496 -5.93077,10.72066 -0.22748,0.83562 -0.11374,0.78228 -2.32356,1.19119 -1.98234,0.37336 -2.01484,0.35558 -1.12117,-0.40891 1.41364,-1.24453 2.81103,-3.14686 4.06218,-5.54701 2.24232,-4.30249 3.50972,-8.80055 4.17591,-14.80981 l 0.0975,-0.83561 -0.45496,0.2489 c -1.2674,0.71116 -6.45073,7.27157 -8.96927,11.30737 l -1.2674,2.06235 -0.86118,0.0356 c -2.81102,0.12445 -9.2455,1.99123 -13.71389,3.94691 -2.69727,1.17341 -5.6058,2.93351 -7.39315,4.4625 -0.50371,0.42669 -0.74744,0.4978 -1.91734,0.55114 -0.73119,0.0355 -1.33239,0 -1.33239,-0.0533 0,-0.0533 0.37371,-0.28445 0.84492,-0.53336 1.42989,-0.71115 4.98835,-3.39576 6.8732,-5.17365 1.91734,-1.79567 4.50088,-4.72918 6.07701,-6.8982 0.94242,-1.29787 0.95867,-1.33342 0.5687,-1.38676 -0.97493,-0.14223 -7.24691,2.1868 -12.00778,4.44472 -5.31331,2.50682 -10.02543,5.52924 -12.47898,7.98271 l -1.12117,1.1023 -2.11232,-0.39113 c -2.437303,-0.46225 -6.921938,-1.65344 -9.391742,-2.50683 l -1.706109,-0.5867 1.46238,-0.23113 c 5.817028,-0.94228 12.462731,-3.73356 18.426001,-7.73381 l 1.54363,-1.03118 -0.48746,-0.23112 c -0.6337,-0.28446 -9.70047,-0.30224 -12.982696,0 -8.124344,0.74671 -14.315089,2.16903 -17.98729,4.1247 l -1.088664,0.5867 -1.332394,-0.60448 c -1.413637,-0.64004 -1.397387,-0.81782 0.08124,-0.85338 3.200988,-0.0889 9.976693,-2.00901 14.558823,-4.14248 1.998585,-0.92451 5.199575,-2.66683 5.199575,-2.82684 0,-0.19558 -0.38997,-0.30225 -2.144827,-0.58671 -5.248322,-0.83561 -15.078775,-0.97783 -20.587079,-0.28446 -3.785947,0.48003 -6.921942,1.22674 -9.01802,2.15125 l -1.121161,0.4978 -1.397388,-0.78227 c -0.779934,-0.42675 -1.819851,-1.03124 -2.30731,-1.36903 l -0.909928,-0.5867 h 2.697286 c 5.89827,-0.0178 11.877785,-1.74234 18.523493,-5.29811 l 2.01484,-1.08451 -0.503712,-0.23113 c -0.276222,-0.12445 -1.446126,-0.35558 -2.583537,-0.53337 -3.08725,-0.44447 -15.143773,-0.44447 -18.16603,0 -2.908513,0.4267 -4.890853,0.90673 -6.7757,1.61788 l -1.60862,0.60448 -1.527375,-1.40452 c -1.543626,-1.42232 -1.98234,-1.92013 -1.511126,-1.72456 0.129988,0.0711 1.039912,0.2489 1.998585,0.40891 1.429886,0.24891 2.502298,0.28447 5.589549,0.21335 3.980925,-0.0889 6.336986,-0.40891 10.025439,-1.36897 1.673614,-0.44448 5.102085,-1.58233 5.102085,-1.68899 0,-0.53337 -5.865775,-2.22237 -11.130349,-3.18243 -5.020842,-0.9245 -6.434479,-1.06673 -11.130349,-1.06673 -3.574711,-0.0178 -4.695872,0.0355 -5.605795,0.26668 l -1.137411,0.30225 -1.21865,-1.33342 c -0.942423,-1.03117 -1.121161,-1.31564 -0.812434,-1.22674 4.175912,1.10229 8.010603,1.40453 12.397748,0.97783 2.4373,-0.23112 6.125753,-0.90672 8.40057,-1.5112 1.657364,-0.44447 5.297068,-1.61788 5.573299,-1.79566 0.584953,-0.37337 -3.96468,-1.86679 -9.001771,-2.96908 -9.196754,-1.99123 -17.776066,-2.54238 -22.276949,-1.4223 -0.601203,0.16 -1.169905,0.23112 -1.267399,0.16 -0.243727,-0.16 -1.316144,-1.9379 -2.031085,-3.37798 -0.324971,-0.69338 -0.74744,-1.51121 -0.926174,-1.813455 l -0.308725,-0.58671 1.104911,0.46226 c 2.372305,0.995625 5.18333,1.742325 8.335575,2.240135 1.99859,0.30225 10.545397,0.30225 12.592731,0 2.941013,-0.42669 3.98093,-0.64004 3.98093,-0.78226 0,-0.51559 -4.972098,-2.986866 -9.667968,-4.80031 -8.075598,-3.129103 -13.713892,-4.55141 -18.68599,-4.693643 l -2.599787,-0.0711 -0.536208,-1.386755 C 26.578422,89.408208 26.02597,87.790328 25.636,86.563585 c -0.38997,-1.226743 -0.74744,-2.364593 -0.828684,-2.560158 -0.08125,-0.213345 0.308725,0 1.169905,0.640034 5.995763,4.586955 14.412582,7.46713 25.055472,8.5872 0.974923,0.10668 1.023667,0.0889 0.86118,-0.231124 -0.682442,-1.404528 -7.961855,-7.324898 -13.535154,-11.040679 -0.796186,-0.533365 -1.429883,-0.977839 -1.429883,-0.995619 0,-0.01779 0.324971,0.01779 0.731191,0.106674 2.551043,0.51559 10.902868,1.208965 11.634058,0.96006 0.324971,-0.12445 0.308726,-0.16001 -0.194982,-0.746714 -0.698697,-0.78227 -4.907108,-3.858014 -7.783122,-5.653683 -8.98545,-5.653713 -17.256025,-9.227271 -22.910569,-9.938427 L 17.511733,65.566699 17.121768,63.30878 C 15.643137,54.686025 13.043345,46.241054 9.8261051,39.627312 8.818688,37.547183 8.3637235,36.818249 7.4213007,35.769294 6.7876036,35.05814 6.1864011,34.47144 6.0889073,34.47144 c -0.097488,0 -0.4062149,0.355575 -0.6824414,0.78227 z M 23.76748,87.114702 c 0.487458,1.58232 0.909923,2.915735 0.926173,2.986855 0.03247,0.05331 -0.40622,0.106665 -0.974923,0.124445 -0.666196,0.01779 -1.332393,0.160012 -2.014835,0.462257 l -1.007417,0.444469 0.341221,-0.906726 c 0.536208,-1.457868 1.413637,-4.444715 1.527376,-5.244761 0.06499,-0.391145 0.146238,-0.728941 0.211232,-0.728941 0.04875,0 0.503709,1.297855 0.991173,2.862402 z m 8.22183,15.983218 c 0.519958,1.03118 1.21865,2.31125 1.543625,2.8624 l 0.601202,0.99562 -0.584953,0.23112 c -0.308725,0.12445 -0.926177,0.60448 -1.348642,1.06673 -0.877429,0.96006 -0.958673,0.90672 -0.958673,-0.71116 0,-1.28007 -0.422465,-4.69362 -0.747436,-6.06259 -0.129993,-0.55114 -0.227482,-1.12007 -0.227482,-1.24452 0,-0.337805 0.617447,0.6756 1.722359,2.8624 z m 27.931492,28.28619 c 0.893674,0.55116 2.079829,1.26231 2.648532,1.56455 l 1.023667,0.56892 -0.487459,0.65782 c -0.584952,0.78227 -0.958672,1.86678 -1.088661,3.16464 l -0.113743,0.96006 -0.942424,-1.52898 c -1.299893,-2.06235 -3.54221,-5.33367 -4.972097,-7.21823 -0.649946,-0.85338 -1.18615,-1.58232 -1.18615,-1.63566 0,-0.0356 0.779936,0.49781 1.754858,1.19119 0.958668,0.71116 2.469799,1.72455 3.363477,2.27569 z m 124.107438,2.47127 0.79619,0.62226 -0.6337,0.0355 c -2.09609,0.14223 -4.90711,0.48003 -6.337,0.74671 -0.92617,0.16001 -1.67361,0.28446 -1.67361,0.24891 0,-0.0178 0.35747,-0.24891 0.81244,-0.49781 0.61745,-0.33781 1.05616,-0.44447 1.90109,-0.44447 1.08866,0 3.57471,-0.7645 3.99718,-1.22674 0.21123,-0.23114 0.16248,-0.2667 1.13741,0.51558 z m -45.35008,4.48028 c -0.42246,0.5867 -1.99858,4.30249 -2.38855,5.68924 -0.24373,0.85339 -0.51996,1.63566 -0.6337,1.72455 -0.19499,0.17779 -5.13458,0.35557 -5.13458,0.19556 0,-0.0533 0.48745,-0.44447 1.05616,-0.85338 1.34864,-0.99561 4.19216,-3.698 5.84952,-5.52923 1.15367,-1.29786 1.70612,-1.83122 1.25115,-1.22674 z m -9.13176,1.47565 c -0.30873,0.12445 -0.68244,0.23112 -0.81243,0.23112 -0.12999,0 0.0162,-0.10667 0.32498,-0.23112 0.30872,-0.12446 0.68243,-0.23113 0.81243,-0.23113 0.12999,0 -0.0162,0.10667 -0.32498,0.23113 z m -1.15366,0.33779 c -0.0326,0.0355 -1.12115,0.51559 -2.42105,1.08451 -2.56729,1.12007 -4.9071,2.34682 -6.61321,3.48467 -0.61745,0.40891 -1.15366,0.76448 -1.21865,0.81782 -0.0812,0.0355 -0.12999,0.0355 -0.12999,0 0,-0.30224 3.7372,-2.59571 5.84952,-3.59133 2.19358,-1.04895 4.82586,-2.08013 4.53338,-1.79567 z m 26.76158,1.31564 c -0.12998,0.28446 -0.38997,0.56892 -0.58495,0.62226 -0.42246,0.12445 -0.42246,0.0889 0.19498,-0.65781 0.58496,-0.72894 0.74744,-0.72894 0.38997,0.0355 z"
       id="path835"
       style="fill:#8c8668;fill-opacity:1;stroke:none;stroke-width:0.0169966" />
  </g>
</svg>
