<?xml version="1.0" standalone="no"?>
<!DOCTYPE svg PUBLIC "-//W3C//DTD SVG 20010904//EN"
 "http://www.w3.org/TR/2001/REC-SVG-20010904/DTD/svg10.dtd">
<svg version="1.0" xmlns="http://www.w3.org/2000/svg"
 width="1280.000000pt" height="756.000000pt" viewBox="0 0 1280.000000 756.000000"
 preserveAspectRatio="xMidYMid meet">
<metadata>
Created by potrace 1.15, written by Peter Selinger 2001-2017
</metadata>
<g transform="translate(0.000000,756.000000) scale(0.100000,-0.100000)"
fill="#000000" stroke="none">
<path d="M260 7516 c-16 -25 -30 -51 -30 -59 0 -7 18 -28 40 -45 57 -47 119
-139 203 -303 195 -383 315 -754 427 -1320 28 -138 50 -251 50 -252 0 -1 -20
-1 -45 1 -27 3 -73 -4 -113 -17 -316 -96 -627 -593 -737 -1181 -41 -218 -73
-640 -48 -640 15 0 119 113 204 220 381 483 714 1092 779 1428 7 34 15 62 19
61 6 0 68 -93 138 -207 30 -48 112 -229 127 -277 5 -18 1 -20 -57 -20 -288 -2
-613 -395 -772 -933 -43 -148 -80 -331 -100 -497 -16 -137 -21 -405 -7 -405
12 0 92 86 171 183 39 49 71 85 71 80 0 -4 -9 -55 -20 -113 -12 -57 -27 -163
-35 -235 -16 -139 -20 -395 -7 -395 20 0 159 162 292 340 224 301 447 672 560
929 50 115 115 301 125 359 4 23 10 42 15 42 4 0 20 -30 36 -66 15 -36 49 -97
76 -135 40 -59 45 -71 30 -75 -94 -28 -183 -116 -241 -238 -190 -400 -104
-1082 216 -1721 33 -64 36 -68 49 -50 20 27 49 128 78 275 29 140 66 386 66
431 0 49 14 33 33 -38 71 -270 279 -641 533 -948 142 -172 162 -192 174 -175
14 22 12 197 -5 359 -59 556 -196 1080 -371 1411 l-45 85 212 -212 212 -211
-38 -34 c-85 -74 -102 -207 -47 -370 125 -373 562 -778 1163 -1080 l156 -78
18 -47 c60 -159 182 -363 325 -543 97 -122 326 -354 340 -345 16 10 12 74 -15
228 -71 416 -234 889 -393 1145 -28 45 -48 82 -45 82 3 0 87 -34 187 -76 99
-42 191 -80 202 -84 21 -9 21 -9 3 -62 -110 -318 278 -832 918 -1216 171 -103
496 -262 535 -262 29 0 18 35 -48 155 -192 345 -616 892 -870 1122 -40 37 -72
68 -71 70 2 1 55 -18 118 -43 171 -67 574 -196 747 -239 144 -36 152 -39 145
-59 -5 -11 -8 -59 -8 -106 0 -106 29 -186 113 -315 147 -226 399 -443 734
-631 87 -49 328 -164 343 -164 3 0 5 10 5 22 0 73 -305 523 -534 788 -84 97
-269 281 -338 337 -26 20 -46 38 -45 39 1 1 52 -4 112 -12 61 -8 207 -17 326
-21 l217 -6 5 -49 c9 -74 62 -163 147 -248 237 -238 695 -418 1236 -485 72 -9
146 -15 164 -13 l34 3 -33 37 c-107 122 -534 417 -862 595 l-143 78 62 7 c71
8 149 28 237 62 55 21 81 24 323 30 l262 6 0 -22 c0 -74 137 -232 290 -334
269 -179 658 -301 1155 -364 162 -20 245 -25 245 -14 0 4 -16 28 -35 54 -81
110 -280 271 -495 400 -136 82 -456 238 -590 289 -58 22 -98 42 -90 44 8 3 96
24 195 47 99 23 226 54 283 69 l103 29 10 -27 c19 -53 35 -77 84 -127 204
-206 691 -321 1243 -293 172 9 372 32 398 47 22 12 -4 32 -111 85 -259 128
-749 295 -1045 356 -58 12 -116 24 -129 27 -18 4 0 13 73 39 54 18 132 54 174
80 45 27 154 76 261 116 101 38 190 73 198 78 12 6 22 -3 42 -42 47 -91 175
-159 349 -188 99 -16 341 -13 467 6 279 41 589 142 870 282 50 25 93 51 97 57
10 15 -46 31 -170 46 -57 7 -102 14 -100 15 2 1 46 15 98 30 178 50 514 195
512 220 -3 58 -735 77 -1127 28 l-50 -6 65 71 c64 69 66 70 105 64 256 -43
617 130 936 448 117 117 229 248 229 269 0 15 -9 14 -99 -9 -189 -48 -488
-164 -713 -276 l-146 -73 43 82 c88 165 237 558 215 565 -38 13 -347 -219
-630 -474 -221 -198 -416 -409 -544 -588 -63 -87 -158 -270 -151 -289 5 -13
-53 -40 -280 -132 -195 -78 -191 -79 -100 16 148 155 295 370 411 601 55 111
124 265 124 280 0 14 -82 -22 -178 -78 -292 -171 -669 -457 -919 -697 -70 -67
-120 -111 -112 -97 74 118 159 304 220 479 42 122 109 378 109 419 l0 23 -31
-18 c-142 -82 -556 -493 -785 -778 -174 -218 -324 -466 -365 -603 -14 -47 -7
-44 -143 -67 -122 -21 -124 -20 -69 23 87 70 173 177 250 312 138 242 216 495
257 833 l6 47 -28 -14 c-78 -40 -397 -409 -552 -636 l-78 -116 -53 -2 c-173
-7 -569 -112 -844 -222 -166 -66 -345 -165 -455 -251 -31 -24 -46 -28 -118
-31 -45 -2 -82 0 -82 3 0 3 23 16 52 30 88 40 307 191 423 291 118 101 277
266 374 388 58 73 59 75 35 78 -60 8 -446 -123 -739 -250 -327 -141 -617 -311
-768 -449 l-69 -62 -130 22 c-150 26 -426 93 -578 141 l-105 33 90 13 c358 53
767 210 1134 435 l95 58 -30 13 c-39 16 -597 17 -799 0 -500 -42 -881 -122
-1107 -232 l-67 -33 -82 34 c-87 36 -86 46 5 48 197 5 614 113 896 233 123 52
320 150 320 159 0 11 -24 17 -132 33 -323 47 -928 55 -1267 16 -233 -27 -426
-69 -555 -121 l-69 -28 -86 44 c-48 24 -112 58 -142 77 l-56 33 166 0 c363 1
731 98 1140 298 l124 61 -31 13 c-17 7 -89 20 -159 30 -190 25 -932 25 -1118
0 -179 -24 -301 -51 -417 -91 l-99 -34 -94 79 c-95 80 -122 108 -93 97 8 -4
64 -14 123 -23 88 -14 154 -16 344 -12 245 5 390 23 617 77 103 25 314 89 314
95 0 30 -361 125 -685 179 -309 52 -396 60 -685 60 -220 1 -289 -2 -345 -15
l-70 -17 -75 75 c-58 58 -69 74 -50 69 257 -62 493 -79 763 -55 150 13 377 51
517 85 102 25 326 91 343 101 36 21 -244 105 -554 167 -566 112 -1094 143
-1371 80 -37 -9 -72 -13 -78 -9 -15 9 -81 109 -125 190 -20 39 -46 85 -57 102
l-19 33 68 -26 c146 -56 319 -98 513 -126 123 -17 649 -17 775 0 181 24 245
36 245 44 0 29 -306 168 -595 270 -497 176 -844 256 -1150 264 l-160 4 -33 78
c-19 42 -53 133 -77 202 -24 69 -46 133 -51 144 -5 12 19 0 72 -36 369 -258
887 -420 1542 -483 60 -6 63 -5 53 13 -42 79 -490 412 -833 621 -49 30 -88 55
-88 56 0 1 20 -1 45 -6 157 -29 671 -68 716 -54 20 7 19 9 -12 42 -43 44 -302
217 -479 318 -553 318 -1062 519 -1410 559 l-55 7 -24 127 c-91 485 -251 960
-449 1332 -62 117 -90 158 -148 217 -39 40 -76 73 -82 73 -6 0 -25 -20 -42
-44z m1130 -2917 c30 -89 56 -164 57 -168 2 -3 -25 -6 -60 -7 -41 -1 -82 -9
-124 -26 l-62 -25 21 51 c33 82 87 250 94 295 4 22 9 41 13 41 3 0 31 -73 61
-161z m506 -899 c32 -58 75 -130 95 -161 l37 -56 -36 -13 c-19 -7 -57 -34 -83
-60 -54 -54 -59 -51 -59 40 0 72 -26 264 -46 341 -8 31 -14 63 -14 70 0 19 38
-38 106 -161z m1719 -1591 c55 -31 128 -71 163 -88 l63 -32 -30 -37 c-36 -44
-59 -105 -67 -178 l-7 -54 -58 86 c-80 116 -218 300 -306 406 -40 48 -73 89
-73 92 0 2 48 -28 108 -67 59 -40 152 -97 207 -128z m7638 -139 l49 -35 -39
-2 c-129 -8 -302 -27 -390 -42 -57 -9 -103 -16 -103 -14 0 1 22 14 50 28 38
19 65 25 117 25 67 0 220 43 246 69 13 13 10 15 70 -29z m-2791 -252 c-26 -33
-123 -242 -147 -320 -15 -48 -32 -92 -39 -97 -12 -10 -316 -20 -316 -11 0 3
30 25 65 48 83 56 258 208 360 311 71 73 105 103 77 69z m-562 -83 c-19 -7
-42 -13 -50 -13 -8 0 1 6 20 13 19 7 42 13 50 13 8 0 -1 -6 -20 -13z m-71 -19
c-2 -2 -69 -29 -149 -61 -158 -63 -302 -132 -407 -196 -38 -23 -71 -43 -75
-46 -5 -2 -8 -2 -8 0 0 17 230 146 360 202 135 59 297 117 279 101z m1647 -74
c-8 -16 -24 -32 -36 -35 -26 -7 -26 -5 12 37 36 41 46 41 24 -2z"/>
</g>
</svg>
