<svg xmlns="http://www.w3.org/2000/svg" version="1.0" width="1280" height="756" preserveAspectRatio="xMidYMid meet" style=""><rect id="backgroundrect" width="100%" height="100%" x="0" y="0" fill="none" stroke="none"/>
<metadata>
Created by potrace 1.15, written by Peter Selinger 2001-2017
</metadata>

<g class="currentLayer" style=""><title>Layer 1</title><g transform="translate(0,756) scale(0.10000000149011612,-0.10000000149011612) " fill="#8c8668" stroke="none" id="svg_1" class="selected" fill-opacity="1">
<path d="M270,7516.000000000001 c-16,-25 -30,-51 -30,-59 c0,-7 18,-28 40,-45 c57,-47 119,-139 203,-303 c195,-383 315,-754 427,-1320 c28,-138 50,-251 50,-252 c0,-1 -20,-1 -45,1 c-27,3 -73,-4 -113,-17 c-316,-96 -627,-593 -737,-1181 c-41,-218 -73,-640 -48,-640 c15,0 119,113 204,220 c381,483 714,1092 779,1428 c7,34 15,62 19,61 c6,0 68,-93 138,-207 c30,-48 112,-229 127,-277 c5,-18 1,-20 -57,-20 c-288,-2 -613,-395 -772,-933 c-43,-148 -80,-331 -100,-497 c-16,-137 -21,-405 -7,-405 c12,0 92,86 171,183 c39,49 71,85 71,80 c0,-4 -9,-55 -20,-113 c-12,-57 -27,-163 -35,-235 c-16,-139 -20,-395 -7,-395 c20,0 159,162 292,340 c224,301 447,672 560,929 c50,115 115,301 125,359 c4,23 10,42 15,42 c4,0 20,-30 36,-66 c15,-36 49,-97 76,-135 c40,-59 45,-71 30,-75 c-94,-28 -183,-116 -241,-238 c-190,-400 -104,-1082 216,-1721 c33,-64 36,-68 49,-50 c20,27 49,128 78,275 c29,140 66,386 66,431 c0,49 14,33 33,-38 c71,-270 279,-641 533,-948 c142,-172 162,-192 174,-175 c14,22 12,197 -5,359 c-59,556 -196,1080 -371,1411 l-45,85 l212,-212 l212,-211 l-38,-34 c-85,-74 -102,-207 -47,-370 c125,-373 562,-778 1163,-1080 l156,-78 l18,-47 c60,-159 182,-363 325,-543 c97,-122 326,-354 340,-345 c16,10 12,74 -15,228 c-71,416 -234,889 -393,1145 c-28,45 -48,82 -45,82 c3,0 87,-34 187,-76 c99,-42 191,-80 202,-84 c21,-9 21,-9 3,-62 c-110,-318 278,-832 918,-1216 c171,-103 496,-262 535,-262 c29,0 18,35 -48,155 c-192,345 -616,892 -870,1122 c-40,37 -72,68 -71,70 c2,1 55,-18 118,-43 c171,-67 574,-196 747,-239 c144,-36 152,-39 145,-59 c-5,-11 -8,-59 -8,-106 c0,-106 29,-186 113,-315 c147,-226 399,-443 734,-631 c87,-49 328,-164 343,-164 c3,0 5,10 5,22 c0,73 -305,523 -534,788 c-84,97 -269,281 -338,337 c-26,20 -46,38 -45,39 c1,1 52,-4 112,-12 c61,-8 207,-17 326,-21 l217,-6 l5,-49 c9,-74 62,-163 147,-248 c237,-238 695,-418 1236,-485 c72,-9 146,-15 164,-13 l34,3 l-33,37 c-107,122 -534,417 -862,595 l-143,78 l62,7 c71,8 149,28 237,62 c55,21 81,24 323,30 l262,6 l0,-22 c0,-74 137,-232 290,-334 c269,-179 658,-301 1155,-364 c162,-20 245,-25 245,-14 c0,4 -16,28 -35,54 c-81,110 -280,271 -495,400 c-136,82 -456,238 -590,289 c-58,22 -98,42 -90,44 c8,3 96,24 195,47 c99,23 226,54 283,69 l103,29 l10,-27 c19,-53 35,-77 84,-127 c204,-206 691,-321 1243,-293 c172,9 372,32 398,47 c22,12 -4,32 -111,85 c-259,128 -749,295 -1045,356 c-58,12 -116,24 -129,27 c-18,4 0,13 73,39 c54,18 132,54 174,80 c45,27 154,76 261,116 c101,38 190,73 198,78 c12,6 22,-3 42,-42 c47,-91 175,-159 349,-188 c99,-16 341,-13 467,6 c279,41 589,142 870,282 c50,25 93,51 97,57 c10,15 -46,31 -170,46 c-57,7 -102,14 -100,15 c2,1 46,15 98,30 c178,50 514,195 512,220 c-3,58 -735,77 -1127,28 l-50,-6 l65,71 c64,69 66,70 105,64 c256,-43 617,130 936,448 c117,117 229,248 229,269 c0,15 -9,14 -99,-9 c-189,-48 -488,-164 -713,-276 l-146,-73 l43,82 c88,165 237,558 215,565 c-38,13 -347,-219 -630,-474 c-221,-198 -416,-409 -544,-588 c-63,-87 -158,-270 -151,-289 c5,-13 -53,-40 -280,-132 c-195,-78 -191,-79 -100,16 c148,155 295,370 411,601 c55,111 124,265 124,280 c0,14 -82,-22 -178,-78 c-292,-171 -669,-457 -919,-697 c-70,-67 -120,-111 -112,-97 c74,118 159,304 220,479 c42,122 109,378 109,419 l0,23 l-31,-18 c-142,-82 -556,-493 -785,-778 c-174,-218 -324,-466 -365,-603 c-14,-47 -7,-44 -143,-67 c-122,-21 -124,-20 -69,23 c87,70 173,177 250,312 c138,242 216,495 257,833 l6,47 l-28,-14 c-78,-40 -397,-409 -552,-636 l-78,-116 l-53,-2 c-173,-7 -569,-112 -844,-222 c-166,-66 -345,-165 -455,-251 c-31,-24 -46,-28 -118,-31 c-45,-2 -82,0 -82,3 c0,3 23,16 52,30 c88,40 307,191 423,291 c118,101 277,266 374,388 c58,73 59,75 35,78 c-60,8 -446,-123 -739,-250 c-327,-141 -617,-311 -768,-449 l-69,-62 l-130,22 c-150,26 -426,93 -578,141 l-105,33 l90,13 c358,53 767,210 1134,435 l95,58 l-30,13 c-39,16 -597,17 -799,0 c-500,-42 -881,-122 -1107,-232 l-67,-33 l-82,34 c-87,36 -86,46 5,48 c197,5 614,113 896,233 c123,52 320,150 320,159 c0,11 -24,17 -132,33 c-323,47 -928,55 -1267,16 c-233,-27 -426,-69 -555,-121 l-69,-28 l-86,44 c-48,24 -112,58 -142,77 l-56,33 l166,0 c363,1 731,98 1140,298 l124,61 l-31,13 c-17,7 -89,20 -159,30 c-190,25 -932,25 -1118,0 c-179,-24 -301,-51 -417,-91 l-99,-34 l-94,79 c-95,80 -122,108 -93,97 c8,-4 64,-14 123,-23 c88,-14 154,-16 344,-12 c245,5 390,23 617,77 c103,25 314,89 314,95 c0,30 -361,125 -685,179 c-309,52 -396,60 -685,60 c-220,1 -289,-2 -345,-15 l-70,-17 l-75,75 c-58,58 -69,74 -50,69 c257,-62 493,-79 763,-55 c150,13 377,51 517,85 c102,25 326,91 343,101 c36,21 -244,105 -554,167 c-566,112 -1094,143 -1371,80 c-37,-9 -72,-13 -78,-9 c-15,9 -81,109 -125,190 c-20,39 -46,85 -57,102 l-19,33 l68,-26 c146,-56 319,-98 513,-126 c123,-17 649,-17 775,0 c181,24 245,36 245,44 c0,29 -306,168 -595,270 c-497,176 -844,256 -1150,264 l-160,4 l-33,78 c-19,42 -53,133 -77,202 c-24,69 -46,133 -51,144 c-5,12 19,0 72,-36 c369,-258 887,-420 1542,-483 c60,-6 63,-5 53,13 c-42,79 -490,412 -833,621 c-49,30 -88,55 -88,56 c0,1 20,-1 45,-6 c157,-29 671,-68 716,-54 c20,7 19,9 -12,42 c-43,44 -302,217 -479,318 c-553,318 -1062,519 -1410,559 l-55,7 l-24,127 c-91,485 -251,960 -449,1332 c-62,117 -90,158 -148,217 c-39,40 -76,73 -82,73 c-6,0 -25,-20 -42,-44 zm1130,-2917 c30,-89 56,-164 57,-168 c2,-3 -25,-6 -60,-7 c-41,-1 -82,-9 -124,-26 l-62,-25 l21,51 c33,82 87,250 94,295 c4,22 9,41 13,41 c3,0 31,-73 61,-161 zm506,-899 c32,-58 75,-130 95,-161 l37,-56 l-36,-13 c-19,-7 -57,-34 -83,-60 c-54,-54 -59,-51 -59,40 c0,72 -26,264 -46,341 c-8,31 -14,63 -14,70 c0,19 38,-38 106,-161 zm1719,-1591 c55,-31 128,-71 163,-88 l63,-32 l-30,-37 c-36,-44 -59,-105 -67,-178 l-7,-54 l-58,86 c-80,116 -218,300 -306,406 c-40,48 -73,89 -73,92 c0,2 48,-28 108,-67 c59,-40 152,-97 207,-128 zm7638,-139 l49,-35 l-39,-2 c-129,-8 -302,-27 -390,-42 c-57,-9 -103,-16 -103,-14 c0,1 22,14 50,28 c38,19 65,25 117,25 c67,0 220,43 246,69 c13,13 10,15 70,-29 zm-2791,-252 c-26,-33 -123,-242 -147,-320 c-15,-48 -32,-92 -39,-97 c-12,-10 -316,-20 -316,-11 c0,3 30,25 65,48 c83,56 258,208 360,311 c71,73 105,103 77,69 zm-562,-83 c-19,-7 -42,-13 -50,-13 c-8,0 1,6 20,13 c19,7 42,13 50,13 c8,0 -1,-6 -20,-13 zm-71,-19 c-2,-2 -69,-29 -149,-61 c-158,-63 -302,-132 -407,-196 c-38,-23 -71,-43 -75,-46 c-5,-2 -8,-2 -8,0 c0,17 230,146 360,202 c135,59 297,117 279,101 zm1647,-74 c-8,-16 -24,-32 -36,-35 c-26,-7 -26,-5 12,37 c36,41 46,41 24,-2 z" id="svg_2" fill="#8c8668" fill-opacity="1"/>
</g></g></svg>